<svg xmlns="http://www.w3.org/2000/svg" version="1.1" id="Layer_2" x="0" y="0" xml:space="preserve" width="670" height="189.239"><style id="style25">.st0{fill:#5f259f}</style><circle transform="rotate(-76.714)" class="st0" cx="-70.342" cy="113.832" r="89.619" id="circle27" fill="#5f259f" stroke-width="5.007"/><path class="st0" d="M458.224 145.83v-32.544c0-8.01-3.004-12.016-10.514-12.016-3.004 0-6.508.501-8.51 1.002v47.563c0 1.502-1.503 3.004-3.005 3.004H424.68c-1.502 0-3.004-1.502-3.004-3.004V94.261c0-2.003 1.502-3.505 3.004-4.005 7.51-2.504 15.02-4.006 23.03-4.006 18.024 0 28.038 9.513 28.038 27.036v37.05c0 1.502-1.502 3.004-3.004 3.004h-7.01c-4.506 0-7.51-3.505-7.51-7.51zm45.06-19.526-.5 4.506c0 6.008 4.005 9.512 10.514 9.512 5.006 0 9.513-1.502 14.52-4.005.5 0 1-.5 1.501-.5 1.002 0 1.502.5 2.003 1 .5.501 1.502 2.003 1.502 2.003 1.001 1.502 2.003 3.505 2.003 5.007 0 2.503-1.502 5.007-3.505 6.008-5.507 3.004-12.016 4.506-19.025 4.506-8.011 0-14.52-2.003-19.527-6.008-5.006-4.506-8.01-10.514-8.01-18.024v-19.526c0-15.52 10.013-25.033 27.036-25.033 16.522 0 26.035 9.012 26.035 25.033V122.8c0 1.502-1.502 3.004-3.004 3.004h-31.543zm-.5-11.015h19.025v-5.007c0-6.008-3.504-10.013-9.512-10.013-6.009 0-9.513 3.505-9.513 10.013zm127.67 11.015-.5 4.506c0 6.008 4.005 9.512 10.513 9.512 5.007 0 9.513-1.502 14.52-4.005.5 0 1.001-.5 1.502-.5 1.001 0 1.502.5 2.002 1 .501.501 1.502 2.003 1.502 2.003 1.002 1.502 2.003 3.505 2.003 5.007 0 2.503-1.502 5.007-3.505 6.008-5.507 3.004-12.016 4.506-19.025 4.506-8.01 0-14.52-2.003-19.526-6.008-5.007-4.506-8.01-10.514-8.01-18.024v-19.526c0-15.52 10.013-25.033 27.035-25.033 16.522 0 26.035 9.012 26.035 25.033V122.8c0 1.502-1.502 3.004-3.004 3.004h-31.542zm-.5-11.015h19.025v-5.007c0-6.008-3.505-10.013-9.513-10.013s-9.513 3.505-9.513 10.013zM335.56 153.34h7.01c1.501 0 3.003-1.501 3.003-3.003v-37.05c0-17.022-9.012-27.036-24.032-27.036-4.506 0-9.512 1.002-12.516 2.003V69.728c0-4.005-3.505-7.51-7.51-7.51h-7.01c-1.502 0-3.004 1.502-3.004 3.004v85.114c0 1.502 1.502 3.004 3.004 3.004h11.516c1.502 0 3.004-1.502 3.004-3.004v-47.063c2.503-1.001 6.008-1.502 8.51-1.502 7.51 0 10.515 3.505 10.515 12.016v32.543c.5 3.505 3.505 7.01 7.51 7.01zm75.6-42.055v18.524c0 15.521-10.513 25.034-28.037 25.034-17.022 0-28.037-9.513-28.037-25.034v-18.524c0-15.52 10.514-25.034 28.037-25.034 17.524 0 28.038 9.513 28.038 25.034zm-17.523 0c0-6.008-3.504-10.014-10.013-10.014s-10.013 3.505-10.013 10.014v18.524c0 6.008 3.504 9.513 10.013 9.513s10.013-3.505 10.013-9.513zm-111.648-8.512c0 16.022-12.016 27.036-28.038 27.036-4.005 0-7.51-.5-11.014-2.002v22.53c0 1.502-1.502 3.004-3.004 3.004h-11.516c-1.502 0-3.004-1.502-3.004-3.004V70.73c0-2.003 1.502-3.505 3.004-4.006 7.51-2.503 15.02-4.005 23.03-4.005 18.025 0 30.542 11.015 30.542 28.037zm-18.024-13.017c0-8.01-5.508-12.016-13.018-12.016-4.506 0-7.51 1.502-7.51 1.502v33.044c3.004 1.502 4.506 2.003 8.01 2.003 7.51 0 13.018-4.506 13.018-12.016V89.755Zm341.455 13.017c0 16.022-12.016 27.036-28.038 27.036-4.005 0-7.51-.5-11.014-2.002v22.53c0 1.502-1.502 3.004-3.004 3.004h-11.516c-1.502 0-3.004-1.502-3.004-3.004V70.73c0-2.003 1.502-3.505 3.004-4.006 7.51-2.503 15.02-4.005 23.03-4.005 18.025 0 30.542 11.015 30.542 28.037zm-18.024-13.017c0-8.01-5.508-12.016-13.018-12.016-4.506 0-7.51 1.502-7.51 1.502v33.044c3.004 1.502 4.506 2.003 8.01 2.003 7.51 0 13.018-4.506 13.018-12.016V89.755Z" id="path29" fill="#5f259f" stroke-width="5.007"/><path d="M135.294 71.23c0-3.504-3.004-6.508-6.509-6.508H116.77L89.233 33.18c-2.504-3.004-6.509-4.006-10.514-3.004l-9.513 3.004c-1.502.5-2.003 2.503-1.001 3.504l30.04 28.538H52.684c-1.502 0-2.503 1.002-2.503 2.504v5.006c0 3.505 3.004 6.51 6.508 6.51h7.01v24.031c0 18.024 9.512 28.538 25.534 28.538 5.006 0 9.012-.5 14.018-2.503v16.021c0 4.506 3.505 8.01 8.011 8.01h7.01c1.501 0 3.003-1.501 3.003-3.003V78.74h11.516c1.502 0 2.503-1 2.503-2.503zm-32.043 43.058c-3.004 1.502-7.009 2.002-10.013 2.002-8.01 0-12.016-4.005-12.016-13.017V79.241h22.03z" id="path31" fill="#fff" stroke-width="5.007"/></svg>